<svg width="18" height="18" viewBox="0 0 18 18" xmlns="http://www.w3.org/2000/svg">
  <g fill="none" fill-rule="evenodd">
    <path d="M17.64 9.20454545C17.64 8.56636364 17.5827273 7.95272727 17.4763636 7.36363636H9V10.845H13.8436364C13.635 11.97 13.0009091 12.9231818 12.0477273 13.5613636V15.8195455H14.9563636C16.6581818 14.2527273 17.64 11.9454545 17.64 9.20454545Z" fill="#4285F4"/>
    <path d="M9 18C11.43 18 13.4672727 17.1940909 14.9563636 15.8195455L12.0477273 13.5613636C11.2418182 14.1013636 10.2109091 14.4204545 9 14.4204545C6.65590909 14.4204545 4.67181818 12.8372727 3.96409091 10.71H0.957272727V13.0418182C2.43818182 15.9831818 5.48181818 18 9 18Z" fill="#34A853"/>
    <path d="M3.96409091 10.71C3.78409091 10.17 3.68181818 9.59318182 3.68181818 9C3.68181818 8.40681818 3.78409091 7.83 3.96409091 7.29V4.95818182H0.957272727C0.347727273 6.17318182 0 7.54772727 0 9C0 10.4522727 0.347727273 11.8268182 0.957272727 13.0418182L3.96409091 10.71Z" fill="#FBBC05"/>
    <path d="M9 3.57954545C10.3213636 3.57954545 11.5077273 4.03363636 12.4404545 4.92545455L15.0218182 2.34409091C13.4631818 0.891818182 11.4259091 0 9 0C5.48181818 0 2.43818182 2.01681818 0.957272727 4.95818182L3.96409091 7.29C4.67181818 5.16272727 6.65590909 3.57954545 9 3.57954545Z" fill="#EA4335"/>
  </g>
</svg>
